<?xml version="1.0" encoding="UTF-8"?>
<svg width="84px" height="46px" viewBox="0 0 84 46" version="1.1" xmlns="http://www.w3.org/2000/svg" xmlns:xlink="http://www.w3.org/1999/xlink">
    <!-- Generator: Sketch 54.1 (76490) - https://sketchapp.com -->
    <title>a-link</title>
    <desc>Created with Sketch.</desc>
    <g id="Page-1" stroke="none" stroke-width="1" fill="none" fill-rule="evenodd">
        <g id="onboarding" transform="translate(-236.000000, -912.000000)" stroke="#FFFFFF">
            <g id="Group-10" transform="translate(0.000000, 888.000000)">
                <g id="Group-7" transform="translate(198.000000, 25.000000)">
                    <g id="a-link" transform="translate(39.000000, 0.000000)">
                        <path d="M46.9203607,44 C45.3048552,44 44,42.6855572 44,41.0641097 L44,8.80255687 C44,7.17091719 45.3074899,5.86666667 46.9203607,5.86666667 L67.4796393,5.86666667 C69.0951448,5.86666667 70.4,7.18110947 70.4,8.80255687 L70.4,11.7333333 L67.4796393,11.7333333 C67.4792864,11.5887992 67.4792864,11.1014621 67.4796393,10.271322 C53.9844214,10.2700259 47.1356527,10.2700259 46.9333333,10.271322 C46.9333333,10.271322 46.9290091,19.5578682 46.9203607,38.1309606 C52.6584026,38.1328133 57.5516157,38.1335873 61.6,38.1332826 L61.6,44 L64.5398198,44 L46.9203607,44 Z M60.9539718,2.93333333 C59.4291016,0 55.7333333,0 55.7333333,0 L8.80000003,0 C8.80000003,0 2.93333333,0 2.93333333,5.86666667 L2.93333333,38.1333333 L5.86666667,38.1333333 L6.13319467,38.1333333 L5.86666667,5.85750695 C5.86666667,3.2 9.03344834,2.93333333 9.03344834,2.93333333 L48.2520867,2.93333333 L60.9539718,2.93333333 L60.9539718,2.93333333 Z M52.3402399,44 L0.86270387,44 C0.41173435,44 0,43.6124366 0,43.1343531 L0,38.9989802 C0,38.5182618 0.386245678,38.1333333 0.86270387,38.1333333 L41.0666667,38.1333333 L41.0666667,44 L52.3402399,44 L52.3402399,44 Z M27.838737,39.6 C27.0441445,39.6 26.4,40.2803386 26.4,41.0666667 C26.4,41.8766844 27.030835,42.5333333 27.838737,42.5333333 L36.6945964,42.5333333 C37.4891889,42.5333333 38.1333333,41.8529948 38.1333333,41.0666667 C38.1333333,40.256649 37.5024983,39.6 36.6945964,39.6 L27.838737,39.6 Z M57.2,42.5333333 C58.0100177,42.5333333 58.6666667,41.8766844 58.6666667,41.0666667 C58.6666667,40.256649 58.0100177,39.6 57.2,39.6 C56.3899823,39.6 55.7333333,40.256649 55.7333333,41.0666667 C55.7333333,41.8766844 56.3899823,42.5333333 57.2,42.5333333 Z M64.5333333,17.6025569 L64.5333333,41.0641097 C64.5333333,42.6855572 65.8381885,44 67.453694,44 L79.2129727,44 C80.8258434,44 82.1333333,42.6957494 82.1333333,41.0641097 L82.1333333,17.6025569 C82.1333333,15.9811095 80.8284781,14.6666667 79.2129727,14.6666667 L67.453694,14.6666667 C65.8408233,14.6666667 64.5333333,15.9709172 64.5333333,17.6025569 Z M79.2129727,17.3632198 L79.2,37.8899937 L67.453694,37.8921242 L67.4666667,17.3653503 L79.2129727,17.3632198 Z M73.3333333,42.5333333 C74.143351,42.5333333 74.8,41.8766844 74.8,41.0666667 C74.8,40.256649 74.143351,39.6 73.3333333,39.6 C72.5233156,39.6 71.8666667,40.256649 71.8666667,41.0666667 C71.8666667,41.8766844 72.5233156,42.5333333 73.3333333,42.5333333 Z" id="a"></path>
                    </g>
                </g>
            </g>
        </g>
    </g>
</svg>