<?xml version="1.0" encoding="UTF-8"?>
<svg width="44px" height="44px" viewBox="0 0 44 44" version="1.1" xmlns="http://www.w3.org/2000/svg" xmlns:xlink="http://www.w3.org/1999/xlink">
    <!-- Generator: Sketch 54.1 (76490) - https://sketchapp.com -->
    <title>Combined Shape</title>
    <desc>Created with Sketch.</desc>
    <g id="Page-1" stroke="none" stroke-width="1" fill="none" fill-rule="evenodd">
        <g id="onboarding" transform="translate(-1140.000000, -913.000000)" fill="#FFFFFF" fill-rule="nonzero">
            <g id="Group-10" transform="translate(0.000000, 888.000000)">
                <g id="Group-9" transform="translate(1076.000000, 25.000000)">
                    <path d="M105.8,0 C107.01,0 108,0.99 108,2.2 L108,32.45 C108,33.66 107.01,34.65 105.8,34.65 L91.94,34.65 C92.49,41.58 95.9,40.205 95.9,44 C92.765,44 80.885,44 76.1,44 C76.1,40.205 79.51,41.58 80.06,34.65 L66.2,34.65 C64.99,34.65 64,33.66 64,32.45 L64,2.2 C64,0.99 64.99,0 66.2,0 L105.8,0 Z M106.9,32.45 L106.9,2.2 C106.9,1.595 106.405,1.1 105.8,1.1 L66.2,1.1 C65.595,1.1 65.1,1.595 65.1,2.2 L65.1,32.45 C65.1,33.055 65.595,33.55 66.2,33.55 L105.8,33.55 C106.405,33.55 106.9,33.055 106.9,32.45 Z M93.7,41.635 C92.6,40.535 91.17,39.05 90.84,34.65 L81.16,34.65 C80.83,39.05 79.4,40.535 78.3,41.635 C77.86,42.075 77.53,42.405 77.365,42.9 L94.635,42.9 C94.47,42.405 94.14,42.075 93.7,41.635 Z M66.75,26.95 L66.75,3.3 L105.25,3.3 L105.25,26.95 L66.75,26.95 Z M67.85,4.4 L67.85,25.85 L104.15,25.85 L104.15,4.4 L67.85,4.4 Z M85.45,1.65 L86.55,1.65 L86.55,2.75 L85.45,2.75 L85.45,1.65 Z M86,28.6 C86.935,28.6 87.65,29.315 87.65,30.25 C87.65,31.185 86.935,31.9 86,31.9 C85.065,31.9 84.35,31.185 84.35,30.25 C84.35,29.315 85.065,28.6 86,28.6 Z M86,31.35 C86.605,31.35 87.1,30.855 87.1,30.25 C87.1,29.645 86.605,29.15 86,29.15 C85.395,29.15 84.9,29.645 84.9,30.25 C84.9,30.855 85.395,31.35 86,31.35 Z M81.6,39.6 L90.4,39.6 L90.4,40.15 L81.6,40.15 L81.6,39.6 Z M70.836808,5.755365 L71.225713,6.14427 L69.592312,7.777671 L69.203407,7.388766 L70.836808,5.755365 Z M73.4928955,5.6624205 L73.8818005,6.0513255 L69.487174,10.445952 L69.098269,10.057047 L73.4928955,5.6624205 Z M69.531922,13.184842 L69.143017,12.795937 L76.298869,5.640085 L76.687774,6.02899 L69.531922,13.184842 Z" id="Combined-Shape"></path>
                </g>
            </g>
        </g>
    </g>
</svg>