<?xml version="1.0" encoding="UTF-8"?>
<svg width="90px" height="44px" viewBox="0 0 90 44" version="1.1" xmlns="http://www.w3.org/2000/svg" xmlns:xlink="http://www.w3.org/1999/xlink">
    <!-- Generator: Sketch 54.1 (76490) - https://sketchapp.com -->
    <title>noun_Taxi_437092</title>
    <desc>Created with Sketch.</desc>
    <g id="Page-1" stroke="none" stroke-width="1" fill="none" fill-rule="evenodd">
        <g id="onboarding" transform="translate(-676.000000, -913.000000)" fill="#FFFFFF" fill-rule="nonzero">
            <g id="Group-10" transform="translate(0.000000, 888.000000)">
                <g id="Group-8" transform="translate(603.000000, 25.000000)">
                    <g id="noun_Taxi_437092" transform="translate(73.000000, 0.000000)">
                        <path d="M58.5,17.4 C58.2,17.2 57.9,16.9 57.5,16.6 C54.3,14.3 50.8,11.9 46.7,10.6 C44.7,10.1 42.6,10.1 40.6,10 C40,10 39.5,10 38.9,10 C38.6,10 38.2,10 37.9,10 C37.2,10 36.5,10 35.8,10 C35.5,10 35.3,10.2 35.3,10.5 L35.3,11 C35.3,11 35.3,11.1 35.3,11.1 C35.6,12.5 36,14 36.3,15.4 C36.6,16.9 37,18.3 37.3,19.8 C37.4,20.4 37.9,21.1 39.5,21.1 C42.3,21.1 45.2,21.2 48,21.3 C51.6,21.4 55.4,21.6 59.1,21.6 C59.7,21.6 60.2,21.3 60.4,20.7 C60.7,20.1 60.6,19.5 60.2,19.1 C59.8,18.4 59.1,17.9 58.5,17.4 Z M59.6,20.3 C59.5,20.4 59.4,20.6 59.2,20.6 C55.5,20.6 51.7,20.5 48.1,20.3 C45.3,20.2 42.5,20.1 39.6,20.1 C38.5,20.1 38.4,19.7 38.4,19.6 C38.1,18.2 37.7,16.7 37.4,15.3 C37.1,13.9 36.8,12.4 36.4,11 C36.9,11 37.4,11 37.9,11 C38.2,11 38.5,11 38.9,11 C39.5,11 40.1,11 40.6,11 C42.6,11 44.6,11.1 46.4,11.5 C50.3,12.7 53.7,15 56.8,17.3 C57.1,17.6 57.4,17.8 57.8,18.1 C58.4,18.6 59,19.1 59.5,19.7 C59.8,19.9 59.7,20.2 59.6,20.3 Z" id="Shape"></path>
                        <path d="M89.8,29.8 C89.8,29.5 89.8,29.2 89.8,28.9 C89.8,28.8 89.8,28.8 89.8,28.7 C89.6,28.1 89,28 88.6,28 C88.6,26.8 88.4,25.4 87.5,24.2 C86.4,22.8 84.6,22.1 83.1,21.6 L82.8,21.5 C78.6,20.2 74.4,19.4 70.2,18.6 L68.5,18.3 C68.2,18.2 67.9,18.1 67.6,17.9 C64.1,15.7 60.2,13.9 56.5,12.2 C55.2,11.6 53.9,11 52.6,10.4 C52.3,10.3 52,10.1 51.6,9.9 C50.9,9.5 50.1,9.2 49.3,8.9 C48.4,8.7 44.4,8.1 44.2,8.1 L44.1,8.1 L40.5,2 C40,1.3 39.1,0.8 38.3,0.8 C38.3,0.8 38.3,0.8 38.3,0.8 L18.8,1.6 C17.8,1.6 16.9,2.3 16.5,3.3 L14.5,9.5 C12.4,9.8 10.3,10.1 8.2,10.5 C7.6,10.5 7.3,10.9 7.2,11.2 L7.1,11.3 C5.7,13.2 3.9,15.6 2.5,18.5 L2.3,19 C1.9,19.9 1.6,20.8 1.6,21.8 C1.6,22.2 1.8,22.5 1.9,22.7 C2,22.9 2.1,23 2.1,23.1 C2.1,23.4 2.1,23.8 2.1,24.1 C2.1,24.6 2.2,25.1 2,25.4 C2,25.5 2,25.5 1.9,25.6 C1.8,26 1.9,26.3 1.9,26.7 C1.9,27 1.9,27.3 1.9,27.6 C1.8,27.6 1.6,27.6 1.5,27.7 C1.1,27.7 0.3,27.8 0.2,28.7 C0.2,29.7 0.2,30.7 0.3,31.7 C0.3,31.8 0.4,32 0.5,32 C1,32.4 1.6,32.6 2.1,32.8 C2.1,33.3 2,33.8 2,34.4 C2,35 1.9,35.7 1.9,36.4 C1.9,36.6 2,36.8 2.2,36.9 C3.4,37.4 5.7,37.4 7,37.4 C7.5,39.7 9.1,41.8 11.2,42.7 C12.2,43.2 13.3,43.4 14.4,43.4 C16.9,43.4 19.3,42.2 20.7,40.2 C21.3,39.4 21.6,38.6 21.9,37.7 L27.2,37.7 C39.2,37.6 52.8,37.5 64.5,37.3 C65.1,38.9 66.3,40.3 67.8,41.2 C68.9,41.9 70.3,42.2 71.7,42.2 C74.2,42.2 76.5,41.1 77.9,39.3 C78.4,38.7 78.7,38 79,37.3 C81.6,37.3 85.1,37.3 87.6,37.2 C87.7,37.2 87.9,37.1 88,37 C88.1,36.9 88.1,36.7 88.1,36.6 C88,36.2 87.8,35.8 87.5,35.5 C87.5,35.4 87.4,35.4 87.4,35.3 C87.8,34.4 88.1,33.7 88.4,33 C89.1,32.9 89.7,32.5 89.8,31.8 C89.8,31.1 89.8,30.5 89.8,29.8 Z M20,39.6 C18.8,41.3 16.7,42.4 14.5,42.4 C13.5,42.4 12.5,42.2 11.7,41.7 C9.8,40.9 8.4,39 8,37 C7.6,35.3 8.1,33.4 9.1,32 C10.1,30.7 11.7,29.7 13.5,29.4 C13.8,29.4 14.1,29.3 14.4,29.3 C16.4,29.3 18.3,30.2 19.6,31.6 C21.6,33.7 21.8,37.2 20,39.6 Z M77.1,38.7 C75.9,40.3 73.8,41.3 71.7,41.3 C70.5,41.3 69.3,41 68.4,40.4 C65.8,38.9 64.4,35.5 65.4,32.8 C66.1,30.5 68.2,28.7 70.6,28.3 C70.9,28.2 71.3,28.2 71.7,28.2 C73.6,28.2 75.4,29 76.7,30.3 C78.8,32.5 79,36.3 77.1,38.7 Z M88.7,31.6 C88.7,31.9 88.1,32 88,32 C87.8,32 87.7,32.1 87.6,32.3 C87.1,33.1 86.7,34 86.3,35.2 C86.2,35.3 86.3,35.5 86.3,35.6 C86.4,35.8 86.5,35.9 86.6,36.1 C86.6,36.2 86.7,36.2 86.7,36.3 C84.4,36.4 81.5,36.4 79.2,36.4 C79.6,34.1 79,31.5 77.4,29.8 C75.7,28 72.9,27 70.5,27.4 C67.7,27.8 65.4,29.8 64.5,32.5 C64,33.6 64,35 64.3,36.3 C52.8,36.5 39.3,36.6 27.3,36.7 L22.2,36.7 C22.4,34.6 21.8,32.5 20.3,31 C18.8,29.4 16.6,28.4 14.3,28.4 C14,28.4 13.6,28.4 13.3,28.5 C11.3,28.8 9.4,30 8.3,31.5 C7.3,32.9 6.8,34.7 6.9,36.4 C5.8,36.4 4,36.4 2.9,36 C2.9,35.5 3,35 3,34.4 C3,33.8 3.1,33.1 3.1,32.4 C3.1,32.2 3,32 2.8,31.9 L2.6,31.8 C2.1,31.7 1.7,31.5 1.3,31.3 C1.2,30.4 1.2,29.5 1.2,28.6 C1.3,28.6 1.5,28.6 1.6,28.5 C2,28.5 2.8,28.4 2.9,27.6 C3,27.2 2.9,26.9 2.9,26.5 C2.9,26.2 2.9,26 2.9,25.7 C3.2,25.1 3.1,24.5 3.1,23.9 C3.1,23.6 3.1,23.3 3.1,23 C3.1,22.6 2.9,22.3 2.8,22.1 C2.7,21.9 2.6,21.8 2.6,21.6 C2.6,20.8 2.9,20 3.3,19.2 L3.5,18.7 C4.8,15.9 6.5,13.5 8,11.7 L8.1,11.5 C8.1,11.4 8.2,11.3 8.2,11.3 L8,11 L8.3,11.5 C10.6,11.1 12.8,10.8 15,10.5 C15.2,10.5 15.3,10.3 15.4,10.2 L17.5,3.7 C17.7,3.1 18.3,2.6 18.9,2.6 L38.4,1.8 C38.9,1.8 39.5,2.1 39.8,2.5 L43.3,8.8 C43.4,9 43.6,9.1 43.7,9.1 L44,9.1 C44,9.1 48.1,9.7 48.9,9.9 C49.6,10.1 50.3,10.4 51,10.8 C51.3,11 51.6,11.1 52,11.3 C53.3,11.9 54.6,12.5 55.9,13.1 C59.6,14.8 63.4,16.5 66.8,18.7 C67.1,18.9 67.5,19.1 68,19.3 L69.8,19.6 C73.9,20.4 78.2,21.2 82.3,22.4 L82.6,22.5 C84.1,23.1 85.6,23.6 86.6,24.8 C87.5,25.9 87.6,27.5 87.5,28.3 C87.5,28.5 87.6,28.8 87.9,28.8 C88,28.8 88.2,28.8 88.3,28.9 C88.5,28.9 88.7,28.9 88.8,29 C88.8,29.3 88.8,29.5 88.8,29.8 C88.8,30.5 88.8,31 88.7,31.6 Z" id="Shape"></path>
                        <path d="M35,15.2 C34.8,13.9 34.6,12.6 34.3,11.2 C34.3,11.2 34.3,11.1 34.3,11 C34.3,10.7 34.2,10.3 33.8,10.1 C33.7,10 33.6,10 33.5,10 C33,10 32.5,10 32,10.1 C31.5,10.1 31.1,10.1 30.6,10.1 C29.2,10.2 27.9,10.2 26.5,10.3 C23.9,10.4 21.1,10.5 18.5,10.7 C16.6,10.8 15.1,11.8 14.5,13.2 C13.8,14.5 12.7,16.7 13.9,18.5 C14.7,19.8 16.3,19.9 17.4,20 C17.4,20 17.5,20 17.5,20 L33.8,20.9 C33.9,20.9 34,20.9 34,20.9 C34.4,20.9 34.9,20.7 35.2,20.4 C35.5,20.1 35.7,19.6 35.6,19.1 C35.4,17.8 35.2,16.5 35,15.2 Z M34.5,19.7 C34.4,19.8 34.1,19.9 33.9,19.9 C33.9,19.9 33.9,19.9 33.9,19.9 L17.5,19 C16.5,18.9 15.3,18.8 14.8,17.9 C14,16.7 14.7,15.1 15.4,13.6 C15.9,12.5 17.1,11.8 18.6,11.7 C21.2,11.5 24,11.4 26.6,11.3 C28,11.2 29.3,11.2 30.7,11.1 C31.2,11.1 31.7,11.1 32.2,11 C32.6,11 33,11 33.4,11 C33.4,11 33.4,11.1 33.4,11.1 C33.4,11.2 33.4,11.4 33.5,11.4 C33.7,12.7 33.9,14 34.2,15.3 C34.4,16.6 34.6,17.9 34.8,19.2 C34.7,19.4 34.6,19.6 34.5,19.7 Z" id="Shape"></path>
                        <path d="M17.8,9.8 C17.8,9.8 17.9,9.8 17.8,9.8 C21.5,9.3 25.5,9 30.1,8.8 C31.9,8.7 33.8,8.6 36,8.6 C37.4,8.6 38.8,8.6 40.2,8.7 C40.4,8.7 40.6,8.6 40.6,8.5 C40.7,8.3 40.7,8.1 40.6,8 L38.1,3.8 C37.7,3.1 37,2.8 36.3,2.8 C36.3,2.8 36.3,2.8 36.3,2.8 L20.8,3.4 C20,3.4 19.2,4 18.9,4.7 L17.3,9.2 C17.2,9.4 17.3,9.5 17.4,9.7 C17.5,9.7 17.7,9.8 17.8,9.8 Z M19.9,4.9 C20,4.5 20.4,4.2 20.8,4.2 L36.3,3.6 C36.7,3.6 37.1,3.8 37.3,4.2 L39.3,7.6 C38.2,7.6 37.1,7.6 36,7.6 C33.9,7.6 31.9,7.7 30.1,7.8 C25.8,8 22,8.3 18.6,8.7 L19.9,4.9 Z" id="Shape"></path>
                        <path d="M14.5,32.5 C12.7,32.5 11.2,34 11.2,35.8 C11.2,37.6 12.7,39.1 14.5,39.1 C16.3,39.1 17.8,37.6 17.8,35.8 C17.8,33.9 16.3,32.5 14.5,32.5 Z M14.5,38.1 C13.2,38.1 12.2,37.1 12.2,35.8 C12.2,34.5 13.2,33.5 14.5,33.5 C15.8,33.5 16.8,34.5 16.8,35.8 C16.8,37.1 15.8,38.1 14.5,38.1 Z" id="Shape"></path>
                        <path d="M71.7,31.5 C69.9,31.5 68.4,33 68.4,34.8 C68.4,36.6 69.9,38.1 71.7,38.1 C73.5,38.1 75,36.6 75,34.8 C75,32.9 73.5,31.5 71.7,31.5 Z M71.7,37.1 C70.4,37.1 69.4,36.1 69.4,34.8 C69.4,33.5 70.4,32.5 71.7,32.5 C73,32.5 74,33.5 74,34.8 C74,36.1 73,37.1 71.7,37.1 Z" id="Shape"></path>
                    </g>
                </g>
            </g>
        </g>
    </g>
</svg>