<?xml version="1.0" encoding="UTF-8"?>
<svg width="152px" height="31px" viewBox="0 0 152 31" version="1.1" xmlns="http://www.w3.org/2000/svg" xmlns:xlink="http://www.w3.org/1999/xlink">
    <!-- Generator: Sketch 54.1 (76490) - https://sketchapp.com -->
    <title>Combined Shape</title>
    <desc>Created with Sketch.</desc>
    <g id="Page-1" stroke="none" stroke-width="1" fill="none" fill-rule="evenodd">
        <g id="onboarding" transform="translate(-50.000000, -30.000000)" fill="#FFFFFF">
            <g id="Group-5" transform="translate(50.000000, 20.000000)">
                <g id="moovetv-svg" transform="translate(0.000000, 10.000000)">
                    <path d="M66.9390155,20.9648033 C66.6087841,21.2650137 66.3599986,21.4796086 66.1239998,21.7058783 C64.0205809,23.7253494 61.9630276,25.7956895 59.80596,27.7537287 C57.774814,29.5975211 55.3222615,30.6457559 52.5947941,30.909274 C46.432141,31.5060812 40.7917985,27.6867373 39.1125658,21.7567473 C38.7506455,20.480297 38.4390382,19.0984951 38.5382744,17.798973 C39.0961654,10.508307 44.6911985,5.84059068 50.8677502,5.61932447 C56.7099009,5.40945514 61.6161177,9.22518537 63.3106389,14.0385594 C63.4793682,14.5186181 63.6150189,15.0086838 63.8009826,15.6054911 C64.5442814,14.915285 65.218087,14.3045792 65.8743804,13.676639 C67.4313051,12.1894855 68.9701615,10.6828738 70.5351474,9.20405945 C74.0984785,5.83447528 78.327832,4.81264791 82.9724766,6.13718747 C87.8542319,7.52955235 90.8329865,10.9160929 91.9095745,15.8706769 C93.3731004,22.6067876 88.6617423,30.0189276 80.7598145,30.9042705 C74.6174534,31.5922527 68.8384025,27.6203019 67.178072,21.6866982 C67.1213656,21.4815544 67.0443672,21.2808582 66.9390155,20.9648033 Z M51.3419715,25.049611 C55.1215653,25.0440516 58.1375683,22.0277706 58.1350665,18.2520684 C58.1328428,14.5186181 55.0145458,11.4242268 51.3011095,11.4650888 C47.5062272,11.5070627 44.5199673,14.5152824 44.5238589,18.2940423 C44.5266387,22.0783616 47.5312448,25.0546145 51.3419715,25.049611 Z M79.4277697,25.049611 C83.2026379,25.0529467 86.2575571,22.023879 86.2575571,18.27653 C86.2575571,14.5505849 83.2115331,11.5081745 79.4324952,11.4614751 C75.7210047,11.4153317 72.6299491,14.5102789 72.6299491,18.2698587 C72.6299491,22.0627952 75.6212125,25.0476652 79.4277697,25.049611 Z M7.12625578,8.89773362 C8.89638546,6.50466728 11.114329,5.42029607 13.8937773,5.49451476 C16.7149215,5.5712352 18.7755326,6.91328704 20.2137629,9.39391476 C20.4239103,9.1345663 20.5745714,8.94832464 20.7246766,8.761805 C23.2989811,5.55455685 28.2485617,4.48908777 31.8947286,6.405987 C34.398984,7.72218738 35.6762682,9.99350171 35.8897512,12.6634288 C36.1724494,16.2078577 36.0943391,19.7831416 36.1471539,23.343971 C36.1618864,24.3521777 36.1024003,25.3617743 36.0576467,26.369981 C35.9845399,28.0205824 35.1178212,28.949289 33.4716673,29.0546406 C32.7419892,29.1002281 31.9775645,29.0966145 31.2723479,28.9317767 C29.8744236,28.6032131 29.2081232,27.6781202 29.2228558,26.2432255 C29.2570464,22.9703758 29.3240378,19.6969701 29.3504452,16.4238425 C29.3554487,15.6883269 29.3162546,14.9383568 29.1825497,14.2167398 C28.9573919,13.0019994 28.4609328,11.9134586 27.1561293,11.514012 C25.7687679,11.0892698 24.488426,11.3780834 23.3843187,12.3229123 C22.3374738,13.2190961 21.9669363,14.4218836 21.9547055,15.7514267 C21.9307999,18.2392817 21.9363593,20.7296384 21.9141215,23.2194392 C21.9043925,24.2712877 21.8710357,25.3264718 21.8212786,26.3785981 C21.7534533,27.8112691 20.8483745,28.8508867 19.43127,29.0318469 C18.750793,29.1196862 18.0350135,29.1127369 17.3564823,29.0087751 C15.8534843,28.7772239 15.0818323,27.8393443 15.0921173,26.3135525 C15.115189,22.9720436 15.2177609,19.6299787 15.1710615,16.2901376 C15.1571629,15.2435707 14.9403443,14.1289005 14.5197717,13.1743425 C13.521294,10.9108114 10.3187714,10.5639015 8.69318747,12.4560612 C7.73445988,13.5732332 7.4459243,14.9403026 7.42368649,16.3432304 C7.37392939,19.5265729 7.39839098,22.7121392 7.39338747,25.8977055 C7.38977383,27.9360788 6.42910043,28.9581841 4.39489675,29.081048 C4.10441536,29.0985603 3.81087627,29.1041197 3.52039487,29.0935568 C1.46673311,29.0162804 0.427115493,27.9572047 0.444905741,25.9046548 C0.475760702,22.2256871 0.54747764,18.5503331 0.574163012,14.8713653 C0.588895561,12.8321582 0.556928709,10.7904492 0.526629693,8.75013015 C0.509117418,7.5798654 0.745116177,6.51300646 1.89703474,5.97596335 C3.21156729,5.36275574 4.58725381,5.23405441 5.89678285,6.01015398 C6.6234033,6.44128952 6.89164688,7.1929275 7.00283593,8.00071595 C7.03480278,8.23838255 7.06760355,8.47632712 7.12625578,8.89773362 Z M122.690595,20.2256741 C122.792889,21.3898234 123.328264,22.2646033 124.133551,22.9845524 C125.693534,24.3805309 127.534824,24.6156957 129.488138,24.1470339 C130.242834,23.9663517 130.958335,23.6186079 131.682454,23.3270147 C132.077175,23.1671804 132.441041,22.9356292 132.837986,22.7846901 C134.46635,22.166201 135.768095,22.6281915 136.546419,24.0822663 C137.366438,25.6097259 137.012857,27.2202993 135.620214,28.1859762 C134.309573,29.0971704 132.836874,29.6225387 131.276892,29.9082945 C129.057558,30.3141346 126.830998,30.461738 124.598043,30.0036392 C118.979105,28.8481069 115.049684,23.2619691 115.731829,17.5601946 C116.209663,13.5723993 117.994526,10.4210236 121.335201,8.19640868 C125.33884,5.5306512 132.423529,5.48256194 136.249822,10.8343689 C137.696669,12.8585656 138.166721,15.1015267 137.715016,17.535455 C137.437599,19.0367851 136.594786,19.809549 134.966978,19.8971104 C132.842156,20.013025 130.711773,20.0255338 128.583893,20.0708433 C126.835445,20.1078137 125.087831,20.1289396 123.339661,20.1622963 C123.143969,20.1661879 122.948832,20.2012125 122.690595,20.2256741 Z M122.650289,15.8640056 C122.825134,15.9254375 122.906858,15.9799202 122.987748,15.9760286 C125.627654,15.9059795 128.267004,15.8306489 130.90691,15.7514267 C131.376684,15.7369721 131.439228,15.422863 131.387525,15.0467661 C131.192666,13.6210445 130.366531,12.6859446 129.062284,12.1689155 C126.731483,11.2463243 123.850853,12.5080421 122.927984,14.8435681 C122.801506,15.1649044 122.744244,15.5129262 122.650289,15.8640056 Z M103.429594,21.8415289 C103.59471,21.455147 103.686719,21.2566745 103.764273,21.0529206 C105.236138,17.1757584 106.707169,13.2991522 108.177922,9.42226796 C108.202384,9.3588902 108.222676,9.29467853 108.246026,9.23130077 C109.23811,6.60890702 111.480793,5.88534427 113.848008,7.41447169 C114.751141,7.99849217 115.171714,8.82129115 115.001872,9.87397348 C114.888738,10.5755764 114.737242,11.2974713 114.448151,11.9409779 C112.157379,17.0301008 109.829914,22.104769 107.51468,27.1830509 C106.825586,28.6966119 105.798199,29.7848747 104.066707,30.065905 C102.116451,30.3839057 100.444168,29.5536015 99.4231746,27.6150204 C98.8183061,26.4664375 98.3193453,25.2600363 97.7848039,24.0767068 C96.0522005,20.2345692 94.3243227,16.3907637 92.6000585,12.5450124 C92.3710091,12.0340988 92.1541904,11.5151239 91.9662809,10.9883657 C91.1559907,8.71343777 92.1458512,7.0233642 94.5277987,6.59556433 C96.4257958,6.25504786 97.5276792,6.81516271 98.2898802,8.69675941 C99.6513901,12.0630079 100.939515,15.4584435 102.257939,18.8422043 C102.623195,19.7781381 102.989285,20.714072 103.429594,21.8415289 Z M140.295436,8.78376484 L139.117666,8.78376484 L139.117666,1.39525245 L136.416884,1.39525245 L136.416884,0.36036036 L142.996218,0.36036036 L142.996218,1.39553042 L140.295436,1.39553042 L140.295436,8.78376484 Z M147.231131,7.2610308 L147.266711,7.2610308 L149.800987,0.36036036 L151.073824,0.36036036 L147.766506,8.78376484 L146.67185,8.78376484 L143.388159,0.36036036 L144.696854,0.36036036 L147.231131,7.2610308 Z" id="Combined-Shape"></path>
                </g>
            </g>
        </g>
    </g>
</svg>