<svg width="197" height="40" viewBox="0 0 197 40" fill="none" xmlns="http://www.w3.org/2000/svg">
<path fill-rule="evenodd" clip-rule="evenodd" d="M86.5582 26.9996C86.13 27.3888 85.8075 27.667 85.5016 27.9604C82.7747 30.5784 80.1073 33.2623 77.3109 35.8007C74.6778 38.191 71.4983 39.5499 67.9625 39.8915C59.9733 40.6652 52.6612 35.7139 50.4843 28.0263C50.0151 26.3715 49.6111 24.5802 49.7398 22.8955C50.463 13.444 57.7164 7.39279 65.7236 7.10595C73.2973 6.83388 79.6576 11.7805 81.8544 18.0205C82.0731 18.6429 82.249 19.2782 82.49 20.0519C83.4537 19.1571 84.3272 18.3654 85.178 17.5514C87.1964 15.6234 89.1913 13.6703 91.2201 11.7532C95.8396 7.38487 101.322 6.06018 107.344 7.7773C113.672 9.58234 117.534 13.9726 118.93 20.3957C120.827 29.1283 114.719 38.7373 104.475 39.885C96.5124 40.7769 89.0205 35.6278 86.8681 27.9355C86.7946 27.6696 86.6947 27.4094 86.5582 26.9996ZM66.3383 32.2951C71.2382 32.2879 75.1481 28.3777 75.1448 23.4829C75.1419 18.6429 71.0994 14.6314 66.2854 14.6843C61.3657 14.7387 57.4944 18.6386 57.4994 23.5373C57.503 28.4432 61.3982 32.3016 66.3383 32.2951ZM102.748 32.2951C107.642 32.2995 111.602 28.3726 111.602 23.5146C111.602 18.6843 107.654 14.7402 102.755 14.6796C97.943 14.6198 93.9358 18.6321 93.9358 23.5059C93.9358 28.4231 97.8137 32.2926 102.748 32.2951Z" fill="#2F7DD8"/>
<path fill-rule="evenodd" clip-rule="evenodd" d="M9.01763 11.356C11.3124 8.25369 14.1877 6.84793 17.791 6.94414C21.4483 7.0436 24.1196 8.78342 25.9841 11.9993C26.2565 11.6631 26.4519 11.4216 26.6465 11.1798C29.9838 7.02198 36.4003 5.64072 41.1272 8.12577C44.3737 9.83207 46.0295 12.7766 46.3063 16.2378C46.6728 20.8328 46.5715 25.4677 46.64 30.084C46.6591 31.391 46.582 32.6998 46.5239 34.0068C46.4292 36.1467 45.3056 37.3506 43.1715 37.4872C42.2256 37.5463 41.2346 37.5416 40.3203 37.3279C38.5081 36.902 37.6443 35.7027 37.6634 33.8425C37.7077 29.5996 37.7946 25.356 37.8288 21.1128C37.8353 20.1593 37.7845 19.187 37.6111 18.2515C37.3192 16.6768 36.6756 15.2656 34.9841 14.7477C33.1856 14.1971 31.5257 14.5715 30.0944 15.7964C28.7373 16.9582 28.2569 18.5175 28.241 20.2411C28.2101 23.4663 28.2173 26.6948 28.1884 29.9225C28.1758 31.2861 28.1326 32.6541 28.0681 34.018C27.9801 35.8753 26.8068 37.2231 24.9697 37.4577C24.0875 37.5715 23.1596 37.5625 22.28 37.4277C20.3315 37.1276 19.3311 35.9117 19.3445 33.9337C19.3744 29.6018 19.5074 25.2692 19.4468 20.9395C19.4288 19.5827 19.1477 18.1377 18.6025 16.9002C17.3081 13.9658 13.1564 13.516 11.049 15.969C9.80609 17.4173 9.43204 19.1895 9.40321 21.0083C9.33871 25.1351 9.37042 29.2649 9.36393 33.3946C9.35925 36.0371 8.11384 37.3622 5.47672 37.5214C5.10015 37.5441 4.71961 37.5514 4.34303 37.5377C1.68069 37.4375 0.332941 36.0645 0.356004 33.4036C0.396004 28.6342 0.488977 23.8696 0.523572 19.1002C0.542671 16.4566 0.501229 13.8097 0.46195 11.1647C0.439247 9.64757 0.745193 8.2645 2.23853 7.56829C3.94267 6.77333 5.72609 6.60649 7.42375 7.61261C8.36573 8.17153 8.71348 9.14595 8.85763 10.1932C8.89907 10.5013 8.94159 10.8097 9.01763 11.356Z" fill="#2F7DD8"/>
<path fill-rule="evenodd" clip-rule="evenodd" d="M158.834 26.0414C158.966 27.5506 159.661 28.6847 160.704 29.618C162.727 31.4277 165.114 31.7326 167.646 31.125C168.624 30.8908 169.552 30.44 170.491 30.062C171.002 29.8548 171.474 29.5546 171.989 29.3589C174.1 28.5571 175.787 29.156 176.796 31.0411C177.859 33.0213 177.401 35.1092 175.596 36.3611C173.897 37.5423 171.987 38.2234 169.965 38.5939C167.088 39.12 164.201 39.3114 161.307 38.7175C154.022 37.2195 148.928 29.9777 149.813 22.5859C150.432 17.4162 152.746 13.3308 157.077 10.4468C162.267 6.99099 171.452 6.92865 176.412 13.8667C178.288 16.4908 178.897 19.3986 178.311 22.5539C177.952 24.5002 176.859 25.502 174.749 25.6155C171.994 25.7658 169.232 25.782 166.474 25.8407C164.207 25.8887 161.942 25.916 159.675 25.9593C159.422 25.9643 159.169 26.0097 158.834 26.0414ZM158.782 20.387C159.008 20.4667 159.114 20.5373 159.219 20.5323C162.641 20.4414 166.063 20.3438 169.485 20.2411C170.094 20.2223 170.175 19.8151 170.108 19.3276C169.856 17.4793 168.785 16.267 167.094 15.5968C164.072 14.4007 160.338 16.0364 159.142 19.0641C158.978 19.4807 158.903 19.9319 158.782 20.387Z" fill="#2F7DD8"/>
<path fill-rule="evenodd" clip-rule="evenodd" d="M133.864 28.1362C134.078 27.6353 134.197 27.378 134.298 27.1139C136.206 22.0876 138.113 17.062 140.02 12.036C140.052 11.9539 140.078 11.8706 140.108 11.7885C141.394 8.38883 144.302 7.45081 147.37 9.43315C148.541 10.1903 149.086 11.2569 148.866 12.6216C148.72 13.5312 148.523 14.467 148.148 15.3013C145.179 21.8987 142.161 28.4775 139.16 35.0609C138.267 37.0231 136.935 38.4339 134.69 38.7982C132.162 39.2105 129.994 38.1341 128.67 35.6209C127.886 34.1319 127.239 32.5679 126.546 31.0339C124.3 26.053 122.06 21.0699 119.825 16.0843C119.528 15.422 119.247 14.7492 119.003 14.0663C117.953 11.1171 119.236 8.92613 122.324 8.37153C124.784 7.93009 126.213 8.65622 127.201 11.0955C128.966 15.4595 130.636 19.8613 132.345 24.2479C132.819 25.4613 133.293 26.6746 133.864 28.1362Z" fill="#2F7DD8"/>
<path d="M181.657 11.2083H180.13V1.62991H176.629V0.288292H185.158V1.63027H181.657V11.2083Z" fill="#2F7DD8"/>
<path d="M190.648 9.23424H190.694L193.98 0.288292H195.63L191.342 11.2083H189.923L185.666 0.288292H187.363L190.648 9.23424Z" fill="#2F7DD8"/>
</svg>
